<svg aria-hidden="true" style="position: absolute; width: 0; height: 0; overflow: hidden;" version="1.1" xmlns="http://www.w3.org/2000/svg" xmlns:xlink="http://www.w3.org/1999/xlink">
<defs>
<symbol id="icon-sparow" viewBox="0 0 55 32">
<path fill="none" stroke="#fff" style="stroke: var(--color1, #fff)" stroke-linejoin="round" stroke-linecap="round" stroke-miterlimit="4" stroke-width="4.5714" d="M52.571 16l-13.714-13.714M52.571 16l-13.714 13.714M52.571 16h-24M16 16h5.714"></path>
<path fill="#ff543e" style="fill: var(--color2, #ff543e)" d="M9.143 16c0 2.525-2.047 4.571-4.571 4.571s-4.571-2.047-4.571-4.571c0-2.525 2.047-4.571 4.571-4.571s4.571 2.047 4.571 4.571z"></path>
</symbol>
<symbol id="icon-add" viewBox="0 0 32 32">
<path d="M6.944 0.501c-1.626 0.18-3.144 0.903-4.307 2.052s-1.904 2.656-2.101 4.278c-0.714 6.092-0.714 12.247 0 18.339 0.391 3.338 3.079 5.957 6.411 6.33 6.018 0.666 12.090 0.666 18.108 0 3.332-0.373 6.020-2.992 6.411-6.33 0.714-6.093 0.714-12.248 0-18.341-0.391-3.338-3.079-5.957-6.411-6.33-6.017-0.666-12.090-0.666-18.108 0zM16 6.305c0.387 0 0.758 0.153 1.032 0.427s0.427 0.643 0.427 1.030v6.782h6.794c0.387 0 0.758 0.153 1.032 0.427s0.427 0.643 0.427 1.030-0.154 0.757-0.427 1.030c-0.274 0.273-0.645 0.427-1.032 0.427h-6.794v6.782c0 0.386-0.154 0.757-0.427 1.030s-0.645 0.427-1.032 0.427c-0.387 0-0.758-0.153-1.031-0.427s-0.427-0.644-0.427-1.030v-6.782h-6.794c-0.387 0-0.758-0.153-1.031-0.427s-0.427-0.643-0.427-1.030c0-0.386 0.154-0.757 0.427-1.030s0.645-0.427 1.031-0.427h6.794v-6.782c0-0.386 0.154-0.757 0.427-1.030s0.645-0.427 1.031-0.427z"></path>
</symbol>
<symbol id="icon-remove" viewBox="0 0 26 32">
<path fill="#ff543e" style="fill: var(--color1, #ff543e)" d="M23.116 6.564l-1.242 22.346c-0.046 0.836-0.392 1.621-0.968 2.196s-1.337 0.894-2.128 0.894h-11.205c-0.791 0-1.552-0.32-2.128-0.894s-0.922-1.36-0.968-2.196l-1.239-22.346h-3.24v-1.641c0-0.218 0.082-0.426 0.227-0.58s0.343-0.24 0.548-0.24h24.803c0.206 0 0.403 0.086 0.548 0.24s0.227 0.363 0.227 0.58v1.641h-3.237zM10.076 0h6.201c0.206 0 0.403 0.086 0.548 0.24s0.227 0.363 0.227 0.58v1.641h-7.751v-1.641c0-0.218 0.082-0.426 0.227-0.58s0.342-0.24 0.548-0.24zM8.526 10.667l0.775 14.769h2.325l-0.62-14.769h-2.48zM15.502 10.667l-0.775 14.769h2.325l0.775-14.769h-2.325z"></path>
</symbol>
</defs>
</svg>